<?xml version="1.0" encoding="UTF-8" standalone="no"?>
<svg width="17px" height="17px" viewBox="0 0 17 17" version="1.1" xmlns="http://www.w3.org/2000/svg" xmlns:xlink="http://www.w3.org/1999/xlink" xmlns:sketch="http://www.bohemiancoding.com/sketch/ns">
    <!-- Generator: Sketch 3.4.4 (17249) - http://www.bohemiancoding.com/sketch -->
    <title>facebook-box</title>
    <desc>Created with Sketch.</desc>
    <defs></defs>
    <g id="Welcome" stroke="none" stroke-width="1" fill="none" fill-rule="evenodd" sketch:type="MSPage">
        <g id="Desktop" sketch:type="MSArtboardGroup" transform="translate(-39.000000, -675.000000)" fill="#16191A">
            <g id="ProfileCard02" sketch:type="MSLayerGroup" transform="translate(20.000000, 534.000000)">
                <g id="bg" transform="translate(160.000000, 98.000000) scale(1, -1) translate(-160.000000, -98.000000) translate(0.000000, 32.000000)" sketch:type="MSShapeGroup">
                    <g id="facebook-box" transform="translate(27.500000, 14.500000) scale(1, -1) translate(-27.500000, -14.500000) translate(19.000000, 6.000000)">
                        <path d="M13.4583333,0 L3.54166667,0 C1.58565818,-1.19770977e-16 2.39541954e-16,1.58565818 0,3.54166667 L0,13.4583333 C-1.10818422e-15,15.4143418 1.58565818,17 3.54166667,17 L13.4583333,17 C14.3976417,17 15.2984785,16.6268612 15.9626699,15.9626699 C16.6268612,15.2984785 17,14.3976417 17,13.4583333 L17,3.54166667 C17,1.58565818 15.4143418,1.19770977e-16 13.4583333,0 L13.4583333,0 Z M11.3333333,4.95833333 L9.9705,4.95833333 C9.53416667,4.95833333 9.20833333,5.13683333 9.20833333,5.58875 L9.20833333,6.375 L11.3333333,6.375 L11.16475,8.5 L9.20833333,8.5 L9.20833333,14.1666667 L7.08333333,14.1666667 L7.08333333,8.5 L5.66666667,8.5 L5.66666667,6.375 L7.08333333,6.375 L7.08333333,5.012875 C7.08333333,3.580625 7.837,2.83333333 9.53416667,2.83333333 L11.3333333,2.83333333 L11.3333333,4.95833333 L11.3333333,4.95833333 Z" id="Shape"></path>
                    </g>
                </g>
            </g>
        </g>
    </g>
</svg>