<svg xmlns="http://www.w3.org/2000/svg" width="24" height="24" viewBox="0 0 24 24" fill="#fff"><path d="M24 5h-3v3h-2V5h-3V3h3V0h2v3h3v2zm-8.7 13.608C15.3 21.04 13.08 24 7.492 24 3.407 24 0 22.238 0 19.274c0-2.288 1.448-5.257 8.215-5.257-1.005-.82-1.25-1.964-.637-3.205-3.962 0-5.99-2.33-5.99-5.288C1.587 2.63 3.737 0 8.127 0h7.033l-1.57 1.65h-1.846c1.302.745 1.994 2.282 1.994 3.975 0 1.554-.855 2.813-2.077 3.758-2.167 1.676-1.612 2.612.66 4.27 2.24 1.678 2.98 2.972 2.98 4.955zM10.912 5.73c-.328-2.487-1.95-4.53-3.843-4.586-1.895-.057-3.166 1.848-2.84 4.337.328 2.49 2.13 4.23 4.025 4.286 1.894.056 2.985-1.546 2.658-4.035zm1.953 13.128c0-2.047-1.867-4-5-4-2.824-.03-5.217 1.786-5.217 3.89 0 2.147 2.04 3.935 4.862 3.935 3.61 0 5.354-1.678 5.354-3.825z"/></svg>