<?xml version="1.0" encoding="UTF-8" standalone="no"?>
<svg width="17px" height="17px" viewBox="0 0 17 17" version="1.1" xmlns="http://www.w3.org/2000/svg" xmlns:xlink="http://www.w3.org/1999/xlink" xmlns:sketch="http://www.bohemiancoding.com/sketch/ns">
    <!-- Generator: Sketch 3.4.4 (17249) - http://www.bohemiancoding.com/sketch -->
    <title>instagram-box</title>
    <desc>Created with Sketch.</desc>
    <defs></defs>
    <g id="Welcome" stroke="none" stroke-width="1" fill="none" fill-rule="evenodd" sketch:type="MSPage">
        <g id="Desktop" sketch:type="MSArtboardGroup" transform="translate(-83.000000, -675.000000)" fill="#16191A">
            <g id="ProfileCard02" sketch:type="MSLayerGroup" transform="translate(20.000000, 534.000000)">
                <g id="bg" transform="translate(160.000000, 98.000000) scale(1, -1) translate(-160.000000, -98.000000) translate(0.000000, 32.000000)" sketch:type="MSShapeGroup">
                    <g id="instagram-box" transform="translate(71.500000, 14.500000) scale(1, -1) translate(-71.500000, -14.500000) translate(63.000000, 6.000000)">
                        <path d="M6.32045833,8.5 C6.32045833,7.29583333 7.29583333,6.32116667 8.5,6.32116667 C9.703532,6.3211667 10.6791874,7.29682217 10.6791874,8.50035417 C10.6791874,9.70388616 9.703532,10.6795416 8.5,10.6795417 C7.29627238,10.6795417 6.32045833,9.70372762 6.32045833,8.5 L6.32045833,8.5 Z M11.948875,8.01408333 C11.9715417,8.17345833 11.9864167,8.33495833 11.9864167,8.5 C11.9864166,10.4256903 10.4253362,11.9867708 8.49964583,11.9867708 C6.5739555,11.9867708 5.01287504,10.4256903 5.012875,8.5 C5.012875,8.33495833 5.02704167,8.17416667 5.051125,8.01408333 C5.072375,7.85825 5.10425,7.70454167 5.14604167,7.55579167 L4.25,7.55579167 L4.25,12.3157917 C4.25,12.5552083 4.44479167,12.75 4.68633333,12.75 L12.3150833,12.75 C12.5559167,12.75 12.75,12.5552083 12.75,12.314375 L12.75,7.554375 L11.8539583,7.554375 C11.8950417,7.70454167 11.9262083,7.85754167 11.948875,8.01479167 L11.948875,8.01408333 Z M12.3129583,4.25 L11.285875,4.25 C11.1704051,4.24999985 11.0596749,4.29591851 10.9780918,4.37763447 C10.8965087,4.45935043 10.8507703,4.57015525 10.8509583,4.685625 L10.8509583,5.71270833 C10.8509583,5.95354167 11.0450417,6.14904167 11.2865833,6.14904167 L12.3136667,6.14904167 C12.5545,6.14904167 12.7492917,5.95425 12.7492917,5.71341667 L12.7492917,4.68633333 C12.7494797,4.57067572 12.7036667,4.45969074 12.6219508,4.37784194 C12.5402348,4.29599314 12.4293244,4.24999985 12.3136667,4.25 L12.3129583,4.25 Z M17,3.54166667 L17,13.4583333 C17,14.3976417 16.6268612,15.2984785 15.9626699,15.9626699 C15.2984785,16.6268612 14.3976417,17 13.4583333,17 L3.54166667,17 C1.58565818,17 2.39541954e-16,15.4143418 0,13.4583333 L0,3.54166667 C-2.39541954e-16,1.58565818 1.58565818,3.5931293e-16 3.54166667,0 L13.4583333,0 C14.3976417,-3.59620674e-16 15.2984785,0.37313881 15.9626699,1.03733015 C16.6268612,1.70152149 17,2.60235827 17,3.54166667 L17,3.54166667 Z M14.1666667,4.14091667 C14.1666667,3.41841667 13.5815833,2.83333333 12.8590833,2.83333333 L4.14091667,2.83333333 C3.41841667,2.83333333 2.83333333,3.419125 2.83333333,4.14091667 L2.83333333,12.858375 C2.83333333,13.580875 3.419125,14.1666667 4.14091667,14.1666667 L12.8605,14.1666667 C13.580875,14.1666667 14.1666667,13.580875 14.1666667,12.858375 L14.1666667,4.14091667 L14.1666667,4.14091667 Z" id="Shape"></path>
                    </g>
                </g>
            </g>
        </g>
    </g>
</svg>