<?xml version="1.0" encoding="UTF-8" standalone="no"?>
<svg width="14px" height="12px" viewBox="0 0 14 12" version="1.1" xmlns="http://www.w3.org/2000/svg" xmlns:xlink="http://www.w3.org/1999/xlink" xmlns:sketch="http://www.bohemiancoding.com/sketch/ns">
    <!-- Generator: Sketch 3.4.4 (17249) - http://www.bohemiancoding.com/sketch -->
    <title>Shape</title>
    <desc>Created with Sketch.</desc>
    <defs></defs>
    <g id="Welcome" stroke="none" stroke-width="1" fill="none" fill-rule="evenodd" sketch:type="MSPage">
        <g id="Desktop" sketch:type="MSArtboardGroup" transform="translate(-145.000000, -559.000000)" fill="#FFF904">
            <g id="ProfileCard02" sketch:type="MSLayerGroup" transform="translate(20.000000, 534.000000)">
                <g id="profile-image" sketch:type="MSShapeGroup">
                    <g id="no-liked" transform="translate(117.000000, 15.000000)">
                        <g id="favorite-empty" transform="translate(8.000000, 10.000000)">
                            <path d="M3.66333333,1.09090909 C5.551,1.09090909 6.56425,2.99454545 7,3.83454545 C7.4375,2.99127273 8.44083333,1.09636364 10.3401667,1.09636364 C11.5406667,1.09636364 12.8333333,1.81090909 12.8333333,3.37745455 C12.8333333,5.25490909 10.066,7.65927273 7,10.4683636 C3.93283333,7.65927273 1.16666667,5.25381818 1.16666667,3.37745455 C1.16666667,1.91781818 2.31291667,1.09090909 3.66333333,1.09090909 L3.66333333,1.09090909 Z M3.66333333,0 C1.80833333,0 0,1.19290909 0,3.37745455 C0,5.91927273 3.24916667,8.52 7,12 C10.7508333,8.52 14,5.91981818 14,3.37745455 C14,1.19018182 12.1934167,0.00545454545 10.3401667,0.00545454545 C9.0545,0.00545454545 7.74666667,0.573818182 7,1.77163636 C6.25041667,0.568363636 4.9455,0 3.66333333,0 L3.66333333,0 Z" id="Shape"></path>
                        </g>
                    </g>
                </g>
            </g>
        </g>
    </g>
</svg>