<?xml version="1.0" encoding="UTF-8" standalone="no"?>
<svg width="17px" height="17px" viewBox="0 0 17 17" version="1.1" xmlns="http://www.w3.org/2000/svg" xmlns:xlink="http://www.w3.org/1999/xlink" xmlns:sketch="http://www.bohemiancoding.com/sketch/ns">
    <!-- Generator: Sketch 3.4.4 (17249) - http://www.bohemiancoding.com/sketch -->
    <title>linkedin-box</title>
    <desc>Created with Sketch.</desc>
    <defs></defs>
    <g id="Welcome" stroke="none" stroke-width="1" fill="none" fill-rule="evenodd" sketch:type="MSPage">
        <g id="Desktop" sketch:type="MSArtboardGroup" transform="translate(-105.000000, -675.000000)" fill="#16191A">
            <g id="ProfileCard02" sketch:type="MSLayerGroup" transform="translate(20.000000, 534.000000)">
                <g id="bg" transform="translate(160.000000, 98.000000) scale(1, -1) translate(-160.000000, -98.000000) translate(0.000000, 32.000000)" sketch:type="MSShapeGroup">
                    <g id="linkedin-box" transform="translate(93.500000, 14.500000) scale(1, -1) translate(-93.500000, -14.500000) translate(85.000000, 6.000000)">
                        <path d="M13.4583333,0 L3.54166667,0 C1.58565818,-1.19770977e-16 2.39541954e-16,1.58565818 0,3.54166667 L0,13.4583333 C-1.10818422e-15,15.4143418 1.58565818,17 3.54166667,17 L13.4583333,17 C14.3976417,17 15.2984785,16.6268612 15.9626699,15.9626699 C16.6268612,15.2984785 17,14.3976417 17,13.4583333 L17,3.54166667 C17,1.58565818 15.4143418,1.19770977e-16 13.4583333,0 L13.4583333,0 Z M5.66666667,13.4583333 L3.54166667,13.4583333 L3.54166667,5.66666667 L5.66666667,5.66666667 L5.66666667,13.4583333 L5.66666667,13.4583333 Z M4.60416667,4.7685 C3.91991667,4.7685 3.36458333,4.20891667 3.36458333,3.519 C3.36458333,2.82908333 3.91991667,2.2695 4.60416667,2.2695 C5.28841667,2.2695 5.84375,2.82908333 5.84375,3.519 C5.84375,4.20891667 5.289125,4.7685 4.60416667,4.7685 L4.60416667,4.7685 Z M14.1666667,13.4583333 L12.0416667,13.4583333 L12.0416667,9.48883333 C12.0416667,7.10316667 9.20833333,7.28379167 9.20833333,9.48883333 L9.20833333,13.4583333 L7.08333333,13.4583333 L7.08333333,5.66666667 L9.20833333,5.66666667 L9.20833333,6.916875 C10.1971667,5.085125 14.1666667,4.94983333 14.1666667,8.67070833 L14.1666667,13.4583333 L14.1666667,13.4583333 Z" id="Shape"></path>
                    </g>
                </g>
            </g>
        </g>
    </g>
</svg>