<?xml version="1.0" encoding="UTF-8" standalone="no"?>
<svg width="9px" height="11px" viewBox="0 0 9 11" version="1.1" xmlns="http://www.w3.org/2000/svg" xmlns:xlink="http://www.w3.org/1999/xlink" xmlns:sketch="http://www.bohemiancoding.com/sketch/ns">
    <!-- Generator: Sketch 3.4.4 (17249) - http://www.bohemiancoding.com/sketch -->
    <title>Location Icon</title>
    <desc>Created with Sketch.</desc>
    <defs></defs>
    <g id="Welcome" stroke="none" stroke-width="1" fill="none" fill-rule="evenodd" sketch:type="MSPage">
        <g id="Desktop" sketch:type="MSArtboardGroup" transform="translate(-176.000000, -588.000000)" stroke-linecap="round" stroke-width="0.7" stroke-linejoin="round">
            <g id="ProfileCard02" sketch:type="MSLayerGroup" transform="translate(20.000000, 534.000000)">
                <g id="head" transform="translate(157.000000, 10.000000)" sketch:type="MSShapeGroup">
                    <g id="Espoo" transform="translate(0.000000, 42.000000)">
                        <g id="Location-Icon" transform="translate(0.000000, 3.000000)">
                            <path d="M0,3.51909861 C0,6.62035074 3.68235294,9.62578258 3.68235294,9.62578258 C3.68235294,9.62578258 7.36470588,6.62035074 7.36470588,3.51909861 C7.36470588,1.57512806 5.71593235,0 3.68235294,0 C1.64969412,0 0,1.57512806 0,3.51909861 L0,3.51909861 Z" id="Stroke-3" stroke="#FFF900" fill="#FFF904"></path>
                            <path d="M3.68235294,2.220143 C2.92010588,2.220143 2.30147059,2.80819081 2.30147059,3.53274972 C2.30147059,4.25818369 2.92010588,4.84535643 3.68235294,4.84535643 C4.44552059,4.84535643 5.06323529,4.25818369 5.06323529,3.53274972 C5.06323529,2.80819081 4.44552059,2.220143 3.68235294,2.220143 Z" id="Stroke-1" stroke="#FFFFFF" fill="#FFFFFF"></path>
                        </g>
                    </g>
                </g>
            </g>
        </g>
    </g>
</svg>