<svg xmlns="http://www.w3.org/2000/svg" width="512px" height="512px" viewBox="0 0 24 24" fill="#fff"><path d="M12.562 0C6.012 0 2.71 4.696 2.71 8.612c0 2.37.898 4.48 2.823 5.267.315.128.6.003.69-.346.063-.242.214-.853.28-1.106.094-.346.058-.467-.197-.768-.555-.655-.91-1.503-.91-2.704 0-3.484 2.606-6.603 6.788-6.603 3.7 0 5.735 2.262 5.735 5.283 0 3.975-1.76 7.33-4.37 7.33-1.443 0-2.523-1.193-2.177-2.656.414-1.747 1.217-3.63 1.217-4.892 0-1.128-.605-2.07-1.86-2.07-1.474 0-2.657 1.525-2.657 3.568 0 1.3.44 2.18.44 2.18L6.738 18.61c-.527 2.23-.08 4.962-.042 5.24.022.163.232.2.327.078.137-.177 1.893-2.345 2.49-4.51.168-.614.97-3.79.97-3.79.478.914 1.878 1.718 3.366 1.718 4.433 0 7.44-4.04 7.44-9.448C21.29 3.808 17.825 0 12.56 0z"/></svg>