<?xml version="1.0" encoding="UTF-8" standalone="no"?>
<svg width="34px" height="26px" viewBox="0 0 34 26" version="1.1" xmlns="http://www.w3.org/2000/svg" xmlns:xlink="http://www.w3.org/1999/xlink" xmlns:sketch="http://www.bohemiancoding.com/sketch/ns">
    <!-- Generator: Sketch 3.4.4 (17249) - http://www.bohemiancoding.com/sketch -->
    <title>scancode</title>
    <desc>Created with Sketch.</desc>
    <defs></defs>
    <g id="Welcome" stroke="none" stroke-width="1" fill="none" fill-rule="evenodd" sketch:type="MSPage">
        <g id="Desktop" sketch:type="MSArtboardGroup" transform="translate(-67.000000, -586.000000)" fill="#FFFFFF">
            <g id="ProfileCard02" sketch:type="MSLayerGroup" transform="translate(20.000000, 534.000000)">
                <g id="profile-image" sketch:type="MSShapeGroup">
                    <g id="Snappikoodi" transform="translate(-1.000000, -1.000000)">
                        <g id="scancode" transform="translate(48.000000, 53.000000)">
                            <path d="M11.1633333,14.4444444 L0,14.4444444 L0,2.88888889 L13.039,2.88888889 C14.0873333,5.21733333 15.9063333,5.33866667 18.4166667,6.51444444 L18.4166667,13.2267778 C16.0961667,12.9638889 12.77125,12.8512222 11.1633333,14.4444444 L11.1633333,14.4444444 Z M11.3333333,5.77777778 L2.83333333,5.77777778 L2.83333333,11.5555556 L11.3333333,11.5555556 L11.3333333,5.77777778 L11.3333333,5.77777778 Z M24.3241667,3.13011111 C23.1823333,1.44733333 17.1983333,0.351 14.773,0 C14.5321667,1.05011111 14.9288333,2.37322222 15.9913333,2.99866667 C17.0226667,3.60822222 20.0231667,4.55577778 20.91,5.45711111 C22.0603333,6.62422222 23.7801667,12.1997778 20.9496667,15.9755556 C18.0086667,15.1233333 14.943,15.2143333 13.2784167,15.9062222 C11.645,16.5851111 11.8433333,18.6622222 13.5475833,18.8601111 C18.3925833,19.4234444 24.2944167,20.5356667 28.1675833,26 C28.1675833,26 30.74875,23.2772222 33.9985833,19.6068889 C28.7994167,15.197 28.0485833,8.62044444 24.32275,3.13011111 L24.3241667,3.13011111 Z M6.83009,10.6432749 C6.81856864,10.6432749 6.80757589,10.6428558 6.79921535,10.6424583 C6.79258086,10.6430277 6.78573062,10.6432749 6.77886959,10.6432749 C6.53682403,10.6432749 6.37498567,10.529306 6.23216617,10.4286712 C6.12980087,10.3566496 6.03326097,10.2886572 5.92016182,10.2699185 C5.86461551,10.2607425 5.80936047,10.25609 5.75597172,10.25609 C5.65977703,10.25609 5.5837555,10.2709499 5.52825234,10.2817591 C5.49409821,10.2883886 5.46464756,10.294094 5.44188533,10.294094 C5.41804432,10.294094 5.38907912,10.2888291 5.37700758,10.2477737 C5.36743882,10.2153892 5.36057779,10.1840147 5.35395409,10.1538006 C5.33738405,10.0782977 5.32536645,10.0322137 5.29698379,10.0278406 C4.9934047,9.98118721 4.81403618,9.91246419 4.77830704,9.82923584 C4.77456368,9.82048966 4.77247085,9.81168976 4.77200697,9.80298657 C4.77061535,9.77817708 4.78819944,9.75641909 4.81275244,9.75236834 C5.05383788,9.71282789 5.26820198,9.58591165 5.44992223,9.37502566 C5.59069205,9.21176014 5.65982018,9.05576876 5.66724218,9.03854503 C5.66756581,9.03777141 5.66794339,9.03695482 5.66833175,9.03621343 C5.70335969,8.96542743 5.7103286,8.90425792 5.68910902,8.8544563 C5.64999251,8.76257848 5.52044199,8.72164122 5.43473303,8.69455386 C5.41341636,8.68783843 5.39325399,8.68147757 5.37719098,8.67512746 C5.3012126,8.64523574 5.17625768,8.58207847 5.19290323,8.49490682 C5.2050287,8.43134125 5.28944313,8.38707314 5.35766508,8.38707314 C5.37660844,8.38707314 5.39339423,8.3903825 5.40752623,8.39699048 C5.48461575,8.4329637 5.55397043,8.45119743 5.6136161,8.45119743 C5.68779291,8.45119743 5.72361915,8.42306784 5.73228174,8.41507379 C5.73014576,8.37566228 5.72753512,8.33399438 5.72501077,8.29458287 C5.72501077,8.29453989 5.72495683,8.29406712 5.72495683,8.29406712 C5.70754535,8.01819727 5.68582953,7.67488301 5.77399811,7.4780081 C6.03788893,6.88869423 6.59752691,6.84286814 6.76270948,6.84286814 C6.7671109,6.84286814 6.83470717,6.84220197 6.83470717,6.84220197 C6.83776011,6.84214824 6.84107196,6.84210526 6.84450248,6.84210526 C7.01013814,6.84210526 7.5709412,6.88798508 7.83499384,7.47765353 C7.92316241,7.67465738 7.90142502,8.01826174 7.8839596,8.2944217 L7.88313973,8.30763766 C7.88074484,8.34513662 7.87853334,8.38062632 7.87666705,8.41503081 C7.88482262,8.42250912 7.9176067,8.44829637 7.98430758,8.45090732 C8.04117,8.4487369 8.10651162,8.43058912 8.17846616,8.39703346 C8.20071057,8.3866326 8.22533909,8.38447292 8.24206015,8.38447292 C8.26733594,8.38447292 8.29305402,8.3893725 8.31448935,8.39827984 L8.31563285,8.39872038 C8.37669172,8.42030645 8.41668205,8.46344637 8.41754507,8.50876747 C8.418311,8.55101558 8.38678909,8.61416211 8.23174703,8.67514895 C8.21586741,8.68141311 8.19560795,8.68781694 8.17420498,8.69457535 C8.08842051,8.72169494 7.95897786,8.76261071 7.91986135,8.85443481 C7.89860941,8.90423644 7.9055999,8.96538445 7.94063863,9.03614896 C7.94102699,9.03692258 7.94136141,9.03770694 7.94173898,9.03852354 C7.95252677,9.06370909 8.21364513,9.65671914 8.79622872,9.75231462 C8.82077093,9.75638686 8.83838739,9.77816634 8.83698498,9.80293284 C8.83646716,9.81182944 8.83430961,9.82072605 8.83053388,9.8294185 C8.79505285,9.91218483 8.61569512,9.98081115 8.31202973,10.027529 C8.2835284,10.0319129 8.2715216,10.0777927 8.25510259,10.1528981 C8.24830628,10.183918 8.24139131,10.2143254 8.231952,10.2462801 C8.2231168,10.276333 8.20346146,10.291021 8.17189639,10.291021 L8.16713898,10.291021 C8.14658825,10.291021 8.11747201,10.2873034 8.08075039,10.2801474 C8.01656306,10.267705 7.94457617,10.2561223 7.85303102,10.2561223 C7.79965305,10.2561223 7.7444088,10.2607855 7.68879776,10.2699507 C7.57581728,10.2886894 7.47928817,10.3565744 7.37710626,10.4285208 C7.23400628,10.5292952 7.07211397,10.6432749 6.83009,10.6432749" id="Shape"></path>
                        </g>
                    </g>
                </g>
            </g>
        </g>
    </g>
</svg>