<?xml version="1.0" encoding="UTF-8" standalone="no"?>
<svg width="22px" height="20px" viewBox="0 0 22 20" version="1.1" xmlns="http://www.w3.org/2000/svg" xmlns:xlink="http://www.w3.org/1999/xlink" xmlns:sketch="http://www.bohemiancoding.com/sketch/ns">
    <!-- Generator: Sketch 3.4.4 (17249) - http://www.bohemiancoding.com/sketch -->
    <title>Shape</title>
    <desc>Created with Sketch.</desc>
    <defs></defs>
    <g id="Welcome" stroke="none" stroke-width="1" fill="none" fill-rule="evenodd" sketch:type="MSPage">
        <g id="Desktop" sketch:type="MSArtboardGroup" transform="translate(-20.000000, -15.000000)" fill="#FFFFFF">
            <g id="Header" sketch:type="MSLayerGroup">
                <g id="snapchat" transform="translate(20.000000, 15.000000)" sketch:type="MSShapeGroup">
                    <path d="M11.0169502,20 C10.9552786,20 10.8964364,19.9977952 10.851684,19.9957034 C10.8161708,19.9986997 10.7795027,20 10.7427769,20 C9.44715185,20 8.58086105,19.4003482 7.81637472,18.8708547 C7.26843222,18.49191 6.75167203,18.1341655 6.14627324,18.0355709 C5.84894412,17.9872912 5.55317413,17.9628122 5.26739402,17.9628122 C4.75248167,17.9628122 4.34555251,18.0409982 4.04845438,18.0978709 C3.86563365,18.1327522 3.70798974,18.1627715 3.58614775,18.1627715 C3.45853125,18.1627715 3.30348587,18.13507 3.23886919,17.9190552 C3.18764936,17.748663 3.15092353,17.5835849 3.11546808,17.4246125 C3.02677173,17.0273509 2.96244378,16.7848784 2.81051663,16.7618692 C1.18551401,16.5164004 0.225387548,16.1548116 0.0341360394,15.7169024 C0.0140985172,15.6708841 0.00289598321,15.6245831 0.000412947326,15.5787909 C-0.00703616033,15.4482548 0.0870882233,15.3337743 0.21851589,15.3124611 C1.50900161,15.1044175 2.65645291,14.4366428 3.62916779,13.3270581 C4.38268256,12.4680303 4.75271265,11.6472756 4.79244123,11.5566523 C4.79417358,11.5525819 4.79619465,11.5482853 4.79827347,11.5443845 C4.98577156,11.1719413 5.02307484,10.8500955 4.90949038,10.5880624 C4.70010694,10.1046437 4.00664699,9.8892507 3.5478628,9.74672953 C3.43375864,9.71139604 3.32583319,9.67792816 3.23985086,9.64451681 C2.83315268,9.48724037 2.1642921,9.15493595 2.25339267,8.69627896 C2.31829807,8.36182626 2.77015286,8.12890788 3.13533237,8.12890788 C3.23673263,8.12890788 3.32658388,8.14632023 3.40222986,8.18108838 C3.81487577,8.37036283 4.18611851,8.46630033 4.50539073,8.46630033 C4.90244549,8.46630033 5.0942167,8.3182954 5.14058596,8.27623441 C5.12915244,8.06886922 5.11517815,7.84963197 5.10166581,7.64226677 C5.10166581,7.64204064 5.10137709,7.63955316 5.10137709,7.63955316 C5.00817662,6.18805332 4.8919359,4.38169216 5.36388595,3.34582726 C6.77644464,0.245129632 9.77208308,0.00401388465 10.6562748,0.00401388465 C10.6798348,0.00401388465 11.0416651,0.000508802279 11.0416651,0.000508802279 C11.0580069,0.000226134346 11.0757347,0 11.0940976,0 C11.9807146,0 14.9825895,0.241398415 16.3960144,3.34396165 C16.8679644,4.38050496 16.7516082,6.18839252 16.658119,7.64141877 L16.6537304,7.71095508 C16.640911,7.9082573 16.6290733,8.09498773 16.6190834,8.27600828 C16.6627386,8.31535565 16.8382258,8.45103626 17.1952632,8.46477392 C17.4996372,8.45335414 17.8493988,8.35786891 18.2345581,8.18131452 C18.3536283,8.12659001 18.4854602,8.11522676 18.574965,8.11522676 C18.7102616,8.11522676 18.8479257,8.14100607 18.9626651,8.18787242 L18.968786,8.19019029 C19.2956229,8.30376627 19.5096836,8.53074862 19.5143032,8.76920729 C19.5184031,8.99149735 19.3496722,9.32374524 18.5197608,9.64462987 C18.4347601,9.67758896 18.3263149,9.71128297 18.2117488,9.7468426 C17.7525604,9.88953337 17.0596779,10.1048133 16.8502945,10.5879493 C16.7365368,10.8499825 16.7739556,11.1717151 16.9615114,11.5440453 C16.9635902,11.5481157 16.9653803,11.5522427 16.9674014,11.5565392 C17.0251464,11.689054 18.4228646,14.8091991 21.5413267,15.3121785 C21.6726966,15.3336047 21.7669942,15.4481983 21.7594874,15.5785082 C21.7567156,15.625318 21.7451666,15.6721278 21.7249559,15.7178635 C21.5350325,16.1533417 20.5749638,16.5144217 18.9494992,16.7602298 C18.7969369,16.7832955 18.7326667,17.0246939 18.6447787,17.4198636 C18.6083994,17.5830761 18.5713848,17.7430662 18.5208579,17.911197 C18.4735647,18.0693215 18.3683533,18.1466029 18.1993914,18.1466029 L18.1739258,18.1466029 C18.0639216,18.1466029 17.9080678,18.1270423 17.7115037,18.0893909 C17.3679208,18.023925 16.9825883,17.9629818 16.4925641,17.9629818 C16.2068417,17.9629818 15.9111295,17.9875174 15.6134539,18.0357405 C15.0086903,18.1343351 14.4919878,18.4915143 13.945027,18.8700632 C13.1790393,19.4002917 12.3124598,20 11.0169502,20" id="Shape"></path>
                </g>
            </g>
        </g>
    </g>
</svg>