<?xml version="1.0" encoding="UTF-8" standalone="no"?>
<svg width="17px" height="17px" viewBox="0 0 17 17" version="1.1" xmlns="http://www.w3.org/2000/svg" xmlns:xlink="http://www.w3.org/1999/xlink" xmlns:sketch="http://www.bohemiancoding.com/sketch/ns">
    <!-- Generator: Sketch 3.4.4 (17249) - http://www.bohemiancoding.com/sketch -->
    <title>twitter-box</title>
    <desc>Created with Sketch.</desc>
    <defs></defs>
    <g id="Welcome" stroke="none" stroke-width="1" fill="none" fill-rule="evenodd" sketch:type="MSPage">
        <g id="Desktop" sketch:type="MSArtboardGroup" transform="translate(-61.000000, -675.000000)" fill="#16191A">
            <g id="ProfileCard02" sketch:type="MSLayerGroup" transform="translate(20.000000, 534.000000)">
                <g id="bg" transform="translate(160.000000, 98.000000) scale(1, -1) translate(-160.000000, -98.000000) translate(0.000000, 32.000000)" sketch:type="MSShapeGroup">
                    <g id="twitter-box" transform="translate(49.500000, 14.500000) scale(1, -1) translate(-49.500000, -14.500000) translate(41.000000, 6.000000)">
                        <path d="M13.4583333,0 L3.54166667,0 C1.58565818,-1.19770977e-16 2.39541954e-16,1.58565818 0,3.54166667 L0,13.4583333 C-1.10818422e-15,15.4143418 1.58565818,17 3.54166667,17 L13.4583333,17 C14.3976417,17 15.2984785,16.6268612 15.9626699,15.9626699 C16.6268612,15.2984785 17,14.3976417 17,13.4583333 L17,3.54166667 C17,1.58565818 15.4143418,1.19770977e-16 13.4583333,0 L13.4583333,0 Z M13.3591667,6.542875 C13.5079167,9.81325 11.069125,13.45975 6.75041667,13.45975 C5.48708712,13.4608702 4.25016061,13.0981532 3.1875,12.4149583 C4.41727607,12.5621746 5.6552484,12.2157462 6.63,11.451625 C5.63499897,11.4332451 4.76183056,10.7841339 4.45754167,9.836625 C4.80588212,9.9034517 5.16486276,9.89012921 5.50729167,9.79766667 C4.388125,9.573125 3.61745833,8.56516667 3.64225,7.4885 C3.95533333,7.66275 4.31516667,7.76758333 4.69483333,7.77891667 C3.67464047,7.09547346 3.35982005,5.73765546 3.97516667,4.675 C5.15593996,6.1277673 6.89799569,7.01089635 8.76775,7.10458333 C8.53076007,6.0800353 9.01017597,5.02384079 9.93740152,4.52774031 C10.8646271,4.03163983 12.0093236,4.21887323 12.7301667,4.98454167 C13.251206,4.88210127 13.7509196,4.6914148 14.20775,4.42070833 C14.0343019,4.95942968 13.6710694,5.41680562 13.185625,5.70775 C13.6464853,5.65263008 14.0965232,5.52895918 14.5208333,5.34083333 C14.2082548,5.80747192 13.8148577,6.21454197 13.3591667,6.542875 L13.3591667,6.542875 Z" id="Shape"></path>
                    </g>
                </g>
            </g>
        </g>
    </g>
</svg>