<?xml version="1.0" encoding="UTF-8" standalone="no"?>
<svg width="24px" height="24px" viewBox="0 0 24 24" version="1.1" xmlns="http://www.w3.org/2000/svg" xmlns:xlink="http://www.w3.org/1999/xlink" xmlns:sketch="http://www.bohemiancoding.com/sketch/ns">
    <!-- Generator: Sketch 3.5.1 (25234) - http://www.bohemiancoding.com/sketch -->
    <title>link</title>
    <desc>Created with Sketch.</desc>
    <defs></defs>
    <g id="Page-1" stroke="none" stroke-width="1" fill="none" fill-rule="evenodd" sketch:type="MSPage">
        <g id="link" sketch:type="MSLayerGroup" fill="#474749">
            <path d="M6.188,8.72 C6.628,8.28 7.114,7.918 7.632,7.632 C10.519,6.042 14.222,6.887 16.077,9.702 L13.831,11.946 C13.1834079,10.463626 11.5774762,9.64662445 9.998,9.996 C9.37906874,10.1343736 8.81252298,10.4466156 8.365,10.896 L4.06,15.2 C2.75291225,16.5096711 2.75291225,18.6303289 4.06,19.94 C5.36967114,21.2470877 7.49032886,21.2470877 8.8,19.94 L10.127,18.614 C11.334,19.094 12.627,19.284 13.907,19.189 L10.977,22.117 C8.45933494,24.5882687 4.42065994,24.5694896 1.92608519,22.0749148 C-0.568489557,19.5803401 -0.587268698,15.5416651 1.884,13.024 L6.188,8.72 L6.188,8.72 Z M13.024,1.883 L10.094,4.813 C11.3811196,4.71567372 12.6735484,4.91158953 13.874,5.386 L15.2,4.06 C16.5096711,2.75291225 18.6303289,2.75291225 19.94,4.06 C21.2470877,5.36967114 21.2470877,7.49032886 19.94,8.8 L15.635,13.105 C14.3246473,14.410439 12.2053527,14.410439 10.895,13.105 C10.5914733,12.8015854 10.3451934,12.4458854 10.168,12.055 L7.922,14.299 C8.158,14.656 8.402,14.965 8.718,15.279 C9.55310312,16.1168293 10.6039502,16.706979 11.754,16.984 C13.3148173,17.3605743 14.9600114,17.1405256 16.367,16.367 C16.8969943,16.0742805 17.383105,15.708351 17.811,15.28 L22.116,10.976 C24.5403189,8.45150153 24.5001681,4.45163277 22.0256608,1.97630886 C19.5511536,-0.499015056 15.5512983,-0.540485722 13.026,1.883 L13.024,1.883 Z" id="Shape" sketch:type="MSShapeGroup"></path>
        </g>
    </g>
</svg>